<?xml version="1.0" encoding="iso-8859-1"?>
<!-- Generator: Adobe Illustrator 19.0.0, SVG Export Plug-In . SVG Version: 6.00 Build 0)  -->
<svg version="1.1" id="Layer_1" xmlns="http://www.w3.org/2000/svg" xmlns:xlink="http://www.w3.org/1999/xlink" x="0px" y="0px" width="240px" height="240px" fill="#E52D27"
	 viewBox="0 0 512 512" style="enable-background:new 0 0 512 512;" xml:space="preserve">
<g>
	<g>
		<path d="M256,0C114.816,0,0,114.837,0,256s114.816,256,256,256c141.163,0,256-114.837,256-256S397.163,0,256,0z M304.896,176.917
			l42.688-42.667c8.32-8.341,21.824-8.341,30.165,0c8.32,8.32,8.32,21.824,0,30.165l-42.667,42.667
			c-4.181,4.16-9.643,6.251-15.083,6.251c-5.461,0-10.923-2.091-15.104-6.251C296.576,198.741,296.576,185.237,304.896,176.917z
			 M134.229,134.251c8.341-8.341,21.845-8.341,30.187,0l42.667,42.667c8.32,8.32,8.32,21.824,0,30.165
			c-4.181,4.16-9.643,6.251-15.083,6.251c-5.461,0-10.923-2.091-15.104-6.251l-42.667-42.667
			C125.909,156.075,125.909,142.571,134.229,134.251z M383.573,382.549c-10.965,4.181-23.339-1.301-27.541-12.331
			c-16.085-42.133-57.237-71.552-100.032-71.552c-42.837,0-83.989,29.44-100.075,71.616c-3.243,8.512-11.349,13.739-19.925,13.739
			c-2.56,0-5.12-0.469-7.616-1.429c-11.008-4.181-16.512-16.512-12.331-27.52C138.325,296.747,195.861,256,256,256
			c60.117,0,117.632,40.725,139.904,99.008C400.085,366.016,394.603,378.347,383.573,382.549z"/>
	</g>
</g>
<g>
</g>
<g>
</g>
<g>
</g>
<g>
</g>
<g>
</g>
<g>
</g>
<g>
</g>
<g>
</g>
<g>
</g>
<g>
</g>
<g>
</g>
<g>
</g>
<g>
</g>
<g>
</g>
<g>
</g>
</svg>
