<?xml version="1.0" encoding="iso-8859-1"?>
<!-- Generator: Adobe Illustrator 18.0.0, SVG Export Plug-In . SVG Version: 6.00 Build 0)  -->
<!DOCTYPE svg PUBLIC "-//W3C//DTD SVG 1.1//EN" "http://www.w3.org/Graphics/SVG/1.1/DTD/svg11.dtd">
<svg version="1.1" id="Capa_1" xmlns="http://www.w3.org/2000/svg" xmlns:xlink="http://www.w3.org/1999/xlink" x="0px" y="0px" width="240px" height="240px" fill="#65B663"
	 viewBox="0 0 44 44" style="enable-background:new 0 0 44 44;" xml:space="preserve">
<path d="M22,0C9.869,0,0,9.869,0,22s9.869,22,22,22s22-9.869,22-22S34.131,0,22,0z M9,18c-0.552,0-1-0.448-1-1c0-2.757,2.243-5,5-5
	s5,2.243,5,5c0,0.552-0.448,1-1,1s-1-0.448-1-1c0-1.654-1.346-3-3-3s-3,1.346-3,3C10,17.552,9.552,18,9,18z M22,37
	c-6.617,0-12-5.383-12-12c0-0.552,0.448-1,1-1s1,0.448,1,1c0,5.514,4.486,10,10,10s10-4.486,10-10c0-0.552,0.448-1,1-1s1,0.448,1,1
	C34,31.617,28.617,37,22,37z M35,18c-0.552,0-1-0.448-1-1c0-1.654-1.346-3-3-3s-3,1.346-3,3c0,0.552-0.448,1-1,1s-1-0.448-1-1
	c0-2.757,2.243-5,5-5s5,2.243,5,5C36,17.552,35.552,18,35,18z"/>
<g>
</g>
<g>
</g>
<g>
</g>
<g>
</g>
<g>
</g>
<g>
</g>
<g>
</g>
<g>
</g>
<g>
</g>
<g>
</g>
<g>
</g>
<g>
</g>
<g>
</g>
<g>
</g>
<g>
</g>
</svg>
